# xmcd CD database file
#
# Track frame offsets:
#	150
#	16667
#	37115
#	52242
#	64537
#	78775
#	95775
#	112882
#	133397
#	145365
#	169127
#	177907
#	190682
#
# Disc length: 2727 seconds
#
# Revision: 1
# Processed by: cddbd v1.5.2PL0 Copyright (c) Steve Scherf et al.
# Submitted via: CDex 1.51
#
DISCID=b30aa50d
DTITLE=Ray Charles - Genius and Soul =Jazz
DYEAR=1900
DGENRE=Soul
TTITLE0=From The Heart
TTITLE1=I've Got News For You
TTITLE2=Moanin'
TTITLE3=Let's Go
TTITLE4=One Mint Julep
TTITLE5=I'm Gonna Move To The Outskirts Of Town
TTITLE6=Stompin' Room Only
TTITLE7=Mister C
TTITLE8=Strike Up The Band
TTITLE9=Birth Of The Blues
TTITLE10=Alabamy Bound
TTITLE11=Basin Street Blues
TTITLE12=New York's My Home
EXTD=
EXTT0=
EXTT1=
EXTT2=
EXTT3=
EXTT4=
EXTT5=
EXTT6=
EXTT7=
EXTT8=
EXTT9=
EXTT10=
EXTT11=
EXTT12=
PLAYORDER=
